<svg xmlns="http://www.w3.org/2000/svg" width="602.695" height="194.914" viewBox="0 0 602.695 194.914">
  <g id="Group_6" data-name="Group 6" transform="translate(-652.418 -1636.315)">
    <g id="Group_4" data-name="Group 4" transform="translate(652.418 1639.671)">
      <path id="Path_7" data-name="Path 7" d="M771.882,1774.422a72.239,72.239,0,0,1-66.178,14.8,72.936,72.936,0,0,1-50.7-50.7,72.614,72.614,0,0,1,0-38.437,72.345,72.345,0,0,1,7.324-17.338,72.937,72.937,0,0,1,43.372-33.406,70.635,70.635,0,0,1,19.194-2.59A72.267,72.267,0,0,1,750,1651.2a69.586,69.586,0,0,1,21.881,12.942l-14.848,24.42a41.906,41.906,0,0,0-14.554-10.208,44.571,44.571,0,0,0-17.582-3.565,43.248,43.248,0,0,0-17.388,3.515,45.8,45.8,0,0,0-14.165,9.525,44.622,44.622,0,0,0-9.572,14.165,43.31,43.31,0,0,0-3.515,17.338,42.616,42.616,0,0,0,3.515,17.241,45.132,45.132,0,0,0,23.737,23.687,43.2,43.2,0,0,0,17.388,3.518,44.579,44.579,0,0,0,17.582-3.564A41.952,41.952,0,0,0,757.034,1750Z" transform="translate(-652.418 -1621.107)" fill="#fff"/>
      <path id="Path_8" data-name="Path 8" d="M803.755,1708.344a56.38,56.38,0,0,1-4.2,21.831,54.645,54.645,0,0,1-11.428,17.485,53.485,53.485,0,0,1-16.949,11.625,53.073,53.073,0,0,1-41.613,0,53.553,53.553,0,0,1-28.474-29.11,56.381,56.381,0,0,1-4.2-21.831,57.263,57.263,0,0,1,4.2-22.078,54.075,54.075,0,0,1,11.478-17.532,53.357,53.357,0,0,1,17-11.575,51.747,51.747,0,0,1,20.758-4.2,54.807,54.807,0,0,1,20.855,3.957,50.4,50.4,0,0,1,16.949,11.233,53.253,53.253,0,0,1,11.428,17.485A59.2,59.2,0,0,1,803.755,1708.344Zm-26.862,0a31.058,31.058,0,0,0-2.1-11.675,27.8,27.8,0,0,0-5.715-8.985,24.7,24.7,0,0,0-8.449-5.763,27.507,27.507,0,0,0-20.611,0,24.19,24.19,0,0,0-8.4,5.763,27.488,27.488,0,0,0-5.618,8.985,31.735,31.735,0,0,0-2.05,11.675,30.246,30.246,0,0,0,2.05,11.234,28.169,28.169,0,0,0,5.618,8.985,26.252,26.252,0,0,0,8.4,6.007,24.62,24.62,0,0,0,10.305,2.2,26.12,26.12,0,0,0,10.306-2.05,25.669,25.669,0,0,0,8.449-5.763,27.117,27.117,0,0,0,5.715-8.989A31.138,31.138,0,0,0,776.892,1708.344Z" transform="translate(-573.323 -1610.072)" fill="#fff"/>
      <path id="Path_9" data-name="Path 9" d="M845.485,1748.394a51.415,51.415,0,0,1-4.2,20.708,53.751,53.751,0,0,1-11.478,16.9,54.626,54.626,0,0,1-17,11.428,51.745,51.745,0,0,1-20.755,4.2l-13.384-.194v-26.668l13.187.195a31.013,31.013,0,0,0,10.647-1.612,21.524,21.524,0,0,0,12.259-10.794,40.517,40.517,0,0,0,2.884-7.619,11.8,11.8,0,0,1-4.5,4.151,31.42,31.42,0,0,1-6.5,2.637,41.8,41.8,0,0,1-7.421,1.417,71.438,71.438,0,0,1-7.18.392,56.379,56.379,0,0,1-20.758-3.809,49.6,49.6,0,0,1-28.474-28.229,60.609,60.609,0,0,1-4.2-23.151,56.959,56.959,0,0,1,4.2-21.98,54.646,54.646,0,0,1,11.478-17.583,52.94,52.94,0,0,1,17-11.622,51.749,51.749,0,0,1,20.758-4.2,40.552,40.552,0,0,1,10.061,1.27,52.168,52.168,0,0,1,9.669,3.518,60.334,60.334,0,0,1,8.938,5.273,74.273,74.273,0,0,1,7.96,6.546l10.355-12.406h6.446Zm-26.862-40.05a27.715,27.715,0,0,0-2.1-10.6,30.523,30.523,0,0,0-5.713-9.083,28.452,28.452,0,0,0-8.449-6.352,22.942,22.942,0,0,0-10.305-2.393,28.534,28.534,0,0,0-10.305,1.856,23.467,23.467,0,0,0-8.4,5.471,25.626,25.626,0,0,0-5.615,8.938,33.583,33.583,0,0,0-2.053,12.161,31.94,31.94,0,0,0,2.053,11.77,26.914,26.914,0,0,0,5.615,8.938,24.52,24.52,0,0,0,8.4,5.712,26.632,26.632,0,0,0,10.305,2,22.936,22.936,0,0,0,10.305-2.393,28.443,28.443,0,0,0,8.449-6.349,30.541,30.541,0,0,0,5.713-9.085A27.706,27.706,0,0,0,818.622,1708.344Z" transform="translate(-499.106 -1610.072)" fill="#fff"/>
      <path id="Path_10" data-name="Path 10" d="M818.628,1655.3a17.077,17.077,0,0,1-1.417,6.935,17.794,17.794,0,0,1-3.859,5.618,18.7,18.7,0,0,1-5.713,3.81,17.931,17.931,0,0,1-13.97,0,17.884,17.884,0,0,1-9.475-9.428,17.555,17.555,0,0,1,0-13.82,17.759,17.759,0,0,1,9.475-9.475,17.925,17.925,0,0,1,13.97,0,18.692,18.692,0,0,1,5.713,3.81,17.663,17.663,0,0,1,3.859,5.665A17.188,17.188,0,0,1,818.628,1655.3Zm-4.593,133.042H787.173V1683.727h26.862Z" transform="translate(-420.575 -1637.523)" fill="#fff"/>
      <path id="Path_11" data-name="Path 11" d="M858.52,1785.4a45.4,45.4,0,0,1-18.168-3.662,47.263,47.263,0,0,1-24.959-24.959,45.442,45.442,0,0,1-3.662-18.168v-31.061H798.738v-26.571H811.73v-41.808H838.3v41.808h40.438v26.571H838.3v31.061a19.812,19.812,0,0,0,1.562,7.863,20.122,20.122,0,0,0,4.3,6.4,20.646,20.646,0,0,0,6.446,4.348,19.693,19.693,0,0,0,7.913,1.611h20.219V1785.4Z" transform="translate(-392.189 -1634.585)" fill="#fff"/>
      <path id="Path_12" data-name="Path 12" d="M937.735,1709.536a56.329,56.329,0,0,1-4.2,21.833,54.6,54.6,0,0,1-11.428,17.485,53.475,53.475,0,0,1-16.949,11.623,53.039,53.039,0,0,1-41.611,0,53.536,53.536,0,0,1-28.474-29.107,56.329,56.329,0,0,1-4.2-21.833,57.2,57.2,0,0,1,4.2-22.075,54.03,54.03,0,0,1,11.478-17.532,53.251,53.251,0,0,1,17-11.575,51.749,51.749,0,0,1,20.758-4.2,54.728,54.728,0,0,1,20.853,3.957,50.408,50.408,0,0,1,16.949,11.233,53.182,53.182,0,0,1,11.428,17.485A59.13,59.13,0,0,1,937.735,1709.536Zm-26.863,0a31.052,31.052,0,0,0-2.1-11.672,27.761,27.761,0,0,0-5.713-8.986,24.721,24.721,0,0,0-8.449-5.762,27.506,27.506,0,0,0-20.611,0,24.2,24.2,0,0,0-8.4,5.762,27.444,27.444,0,0,0-5.615,8.986,31.666,31.666,0,0,0-2.053,11.672,30.169,30.169,0,0,0,2.053,11.234,28.15,28.15,0,0,0,5.615,8.988,26.257,26.257,0,0,0,8.4,6.007,24.619,24.619,0,0,0,10.305,2.2,26.138,26.138,0,0,0,10.305-2.05,25.7,25.7,0,0,0,8.449-5.766,27.061,27.061,0,0,0,5.713-8.985A31.157,31.157,0,0,0,910.872,1709.536Z" transform="translate(-335.04 -1607.948)" fill="#fff"/>
      <rect id="Rectangle_26" data-name="Rectangle 26" width="50.013" height="16.671" transform="translate(151.992 159.339)" fill="#fff"/>
    </g>
    <g id="Group_5" data-name="Group 5" transform="translate(777.544 1636.315)">
      <rect id="Rectangle_27" data-name="Rectangle 27" width="16.671" height="28.028" transform="translate(60.162 28.028) rotate(180)" fill="#fff"/>
      <rect id="Rectangle_28" data-name="Rectangle 28" width="16.671" height="28.028" transform="matrix(0.809, -0.588, 0.588, 0.809, 0, 19.593)" fill="#fff"/>
      <rect id="Rectangle_29" data-name="Rectangle 29" width="16.671" height="28.028" transform="matrix(0.809, 0.588, -0.588, 0.809, 90.258, 9.794)" fill="#fff"/>
    </g>
  </g>
</svg>
