<svg xmlns="http://www.w3.org/2000/svg" width="465" height="155" viewBox="0 0 465 155">
  <g id="Group_11" data-name="Group 11" transform="translate(-313 -1100)">
    <rect id="Rectangle_34" data-name="Rectangle 34" width="465" height="155" transform="translate(313 1100)" fill="#e6ff00"/>
    <g id="Group_10" data-name="Group 10" transform="translate(326.783 1106.459)">
      <g id="Group_4" data-name="Group 4" transform="translate(0 2.435)">
        <path id="Path_7" data-name="Path 7" d="M739.081,1739.368a52.406,52.406,0,0,1-48.008,10.735,52.912,52.912,0,0,1-36.777-36.776,52.679,52.679,0,0,1,0-27.884,52.48,52.48,0,0,1,5.313-12.577,52.91,52.91,0,0,1,31.464-24.234A51.25,51.25,0,0,1,705,1646.753a52.428,52.428,0,0,1,18.211,3.225,50.486,50.486,0,0,1,15.873,9.388l-10.771,17.716a30.4,30.4,0,0,0-10.558-7.405A32.334,32.334,0,0,0,705,1667.09a31.369,31.369,0,0,0-12.614,2.55,33.225,33.225,0,0,0-10.275,6.909,32.371,32.371,0,0,0-6.944,10.275,31.42,31.42,0,0,0-2.55,12.578,30.916,30.916,0,0,0,2.55,12.507,32.74,32.74,0,0,0,17.219,17.183A31.338,31.338,0,0,0,705,1731.644a32.342,32.342,0,0,0,12.755-2.586,30.437,30.437,0,0,0,10.558-7.406Z" transform="translate(-652.418 -1628.149)"/>
        <path id="Path_8" data-name="Path 8" d="M774.413,1693.137a40.9,40.9,0,0,1-3.047,15.837,39.642,39.642,0,0,1-8.29,12.684,38.8,38.8,0,0,1-12.3,8.433,38.5,38.5,0,0,1-30.187,0,38.849,38.849,0,0,1-20.656-21.117,40.9,40.9,0,0,1-3.045-15.837,41.542,41.542,0,0,1,3.045-16.016,39.226,39.226,0,0,1,8.327-12.719,38.708,38.708,0,0,1,12.329-8.4,37.54,37.54,0,0,1,15.058-3.048,39.756,39.756,0,0,1,15.129,2.87,36.565,36.565,0,0,1,12.3,8.149,38.629,38.629,0,0,1,8.29,12.684A42.945,42.945,0,0,1,774.413,1693.137Zm-19.487,0a22.531,22.531,0,0,0-1.524-8.47,20.167,20.167,0,0,0-4.146-6.518,17.912,17.912,0,0,0-6.129-4.18,19.954,19.954,0,0,0-14.952,0,17.547,17.547,0,0,0-6.093,4.18,19.941,19.941,0,0,0-4.076,6.518,23.023,23.023,0,0,0-1.487,8.47,21.943,21.943,0,0,0,1.487,8.149,20.437,20.437,0,0,0,4.076,6.518,19.047,19.047,0,0,0,6.093,4.358,17.864,17.864,0,0,0,7.476,1.594,18.948,18.948,0,0,0,7.476-1.487,18.622,18.622,0,0,0,6.129-4.18,19.671,19.671,0,0,0,4.146-6.521A22.585,22.585,0,0,0,754.926,1693.137Z" transform="translate(-607.251 -1621.847)"/>
        <path id="Path_9" data-name="Path 9" d="M816.143,1722.19a37.3,37.3,0,0,1-3.047,15.022,38.991,38.991,0,0,1-8.327,12.259,39.625,39.625,0,0,1-12.329,8.29,37.539,37.539,0,0,1-15.057,3.048l-9.709-.141v-19.346l9.566.141a22.493,22.493,0,0,0,7.724-1.169,15.613,15.613,0,0,0,8.893-7.831,29.38,29.38,0,0,0,2.092-5.527,8.557,8.557,0,0,1-3.261,3.012,22.811,22.811,0,0,1-4.712,1.913,30.344,30.344,0,0,1-5.384,1.028,51.842,51.842,0,0,1-5.208.284,40.9,40.9,0,0,1-15.058-2.763,35.984,35.984,0,0,1-20.656-20.479,43.968,43.968,0,0,1-3.048-16.794,41.318,41.318,0,0,1,3.048-15.945A39.646,39.646,0,0,1,750,1664.437a38.406,38.406,0,0,1,12.329-8.431,37.541,37.541,0,0,1,15.058-3.048,29.4,29.4,0,0,1,7.3.921,37.857,37.857,0,0,1,7.014,2.552,43.792,43.792,0,0,1,6.484,3.825,53.937,53.937,0,0,1,5.775,4.749l7.512-9h4.676Zm-19.487-29.053a20.108,20.108,0,0,0-1.524-7.689,22.143,22.143,0,0,0-4.144-6.589,20.64,20.64,0,0,0-6.129-4.608,16.645,16.645,0,0,0-7.476-1.736,20.7,20.7,0,0,0-7.476,1.346,17.027,17.027,0,0,0-6.1,3.969,18.592,18.592,0,0,0-4.073,6.484,24.363,24.363,0,0,0-1.49,8.822,23.171,23.171,0,0,0,1.49,8.538,19.526,19.526,0,0,0,4.073,6.484,17.788,17.788,0,0,0,6.1,4.144,19.319,19.319,0,0,0,7.476,1.453,16.635,16.635,0,0,0,7.476-1.736,20.628,20.628,0,0,0,6.129-4.605,22.154,22.154,0,0,0,4.144-6.591A20.1,20.1,0,0,0,796.656,1693.137Z" transform="translate(-564.87 -1621.847)"/>
        <path id="Path_10" data-name="Path 10" d="M808.784,1650.419a12.387,12.387,0,0,1-1.028,5.031,12.905,12.905,0,0,1-2.8,4.075,13.56,13.56,0,0,1-4.144,2.764,13.007,13.007,0,0,1-10.134,0,12.974,12.974,0,0,1-6.873-6.839,12.734,12.734,0,0,1,0-10.026,12.883,12.883,0,0,1,6.873-6.873,13,13,0,0,1,10.134,0,13.552,13.552,0,0,1,4.144,2.764,12.807,12.807,0,0,1,2.8,4.109A12.468,12.468,0,0,1,808.784,1650.419Zm-3.332,96.513H785.966V1671.04h19.487Z" transform="translate(-520.025 -1637.523)"/>
        <path id="Path_11" data-name="Path 11" d="M842.106,1745.254a32.932,32.932,0,0,1-13.18-2.657,34.285,34.285,0,0,1-18.106-18.106,32.967,32.967,0,0,1-2.656-13.18v-22.532h-9.425V1669.5h9.425v-30.329h19.275V1669.5h29.335v19.275H827.438v22.532a14.373,14.373,0,0,0,1.133,5.7,14.6,14.6,0,0,0,3.118,4.642,14.976,14.976,0,0,0,4.676,3.155,14.286,14.286,0,0,0,5.74,1.169h14.668v19.273Z" transform="translate(-503.815 -1635.845)"/>
        <path id="Path_12" data-name="Path 12" d="M908.393,1694.329a40.862,40.862,0,0,1-3.048,15.838,39.6,39.6,0,0,1-8.29,12.684,38.791,38.791,0,0,1-12.3,8.431,38.474,38.474,0,0,1-30.186,0,38.838,38.838,0,0,1-20.656-21.115,40.862,40.862,0,0,1-3.048-15.838,41.5,41.5,0,0,1,3.048-16.014,39.194,39.194,0,0,1,8.326-12.718,38.628,38.628,0,0,1,12.329-8.4,37.541,37.541,0,0,1,15.058-3.048,39.7,39.7,0,0,1,15.127,2.87,36.569,36.569,0,0,1,12.3,8.149,38.582,38.582,0,0,1,8.29,12.684A42.9,42.9,0,0,1,908.393,1694.329Zm-19.487,0a22.527,22.527,0,0,0-1.524-8.468,20.138,20.138,0,0,0-4.144-6.519,17.934,17.934,0,0,0-6.129-4.18,19.954,19.954,0,0,0-14.952,0,17.554,17.554,0,0,0-6.1,4.18,19.911,19.911,0,0,0-4.073,6.519,22.974,22.974,0,0,0-1.49,8.468,21.886,21.886,0,0,0,1.49,8.149,20.424,20.424,0,0,0,4.073,6.521,19.047,19.047,0,0,0,6.1,4.357,17.86,17.86,0,0,0,7.476,1.594,18.965,18.965,0,0,0,7.476-1.487,18.646,18.646,0,0,0,6.129-4.183,19.63,19.63,0,0,0,4.144-6.518A22.6,22.6,0,0,0,888.906,1694.329Z" transform="translate(-471.181 -1620.635)"/>
        <rect id="Rectangle_26" data-name="Rectangle 26" width="36.281" height="12.094" transform="translate(110.26 115.589)"/>
      </g>
      <g id="Group_5" data-name="Group 5" transform="translate(90.77 0)">
        <rect id="Rectangle_27" data-name="Rectangle 27" width="12.094" height="20.332" transform="translate(43.643 20.332) rotate(180)"/>
        <rect id="Rectangle_28" data-name="Rectangle 28" width="12.094" height="20.332" transform="matrix(0.809, -0.588, 0.588, 0.809, 0, 14.213)"/>
        <rect id="Rectangle_29" data-name="Rectangle 29" width="12.094" height="20.332" transform="matrix(0.809, 0.588, -0.588, 0.809, 65.475, 7.105)"/>
      </g>
    </g>
  </g>
</svg>
