<svg xmlns="http://www.w3.org/2000/svg" viewBox="0 0 306.21 64.31"><defs><style>.cls-1{fill:#fff;}</style></defs><title>heloAsset 8</title><g id="Layer_2" data-name="Layer 2"><g id="Logo"><path class="cls-1" d="M33.48,10.21a19.21,19.21,0,0,1,6.76,11.32H29.56A9.86,9.86,0,0,0,25.93,17a10.15,10.15,0,0,0-5.81-1.65A8.86,8.86,0,0,0,13,18.58a13.11,13.11,0,0,0-2.71,8.68q0,5.43,2.71,8.64a8.9,8.9,0,0,0,7.14,3.22,10.08,10.08,0,0,0,5.81-1.66A9.85,9.85,0,0,0,29.56,33H40.24a19.32,19.32,0,0,1-6.76,11.3Q28.26,48.5,20.3,48.5A20.77,20.77,0,0,1,9.62,45.81a18.17,18.17,0,0,1-7.11-7.52A23.5,23.5,0,0,1,0,27.26a23.57,23.57,0,0,1,2.51-11A18.23,18.23,0,0,1,9.62,8.7,20.76,20.76,0,0,1,20.3,6Q28.27,6,33.48,10.21Z"/><path class="cls-1" d="M70.06,16.84a15,15,0,0,1,6.08,5.87,17.7,17.7,0,0,1,2.21,9,17.7,17.7,0,0,1-2.21,9,14.93,14.93,0,0,1-6.08,5.87,18.5,18.5,0,0,1-8.76,2,18.62,18.62,0,0,1-8.79-2,14.89,14.89,0,0,1-6.11-5.87,17.7,17.7,0,0,1-2.21-9,17.7,17.7,0,0,1,2.21-9,15,15,0,0,1,6.11-5.87,20,20,0,0,1,17.55,0ZM56.43,25.63a8.49,8.49,0,0,0-2,6.05c0,2.64.65,4.64,2,6a6.47,6.47,0,0,0,4.87,2.07,6.37,6.37,0,0,0,4.84-2.07c1.3-1.38,1.94-3.38,1.94-6a8.58,8.58,0,0,0-1.94-6.05,6.36,6.36,0,0,0-4.84-2.09A6.45,6.45,0,0,0,56.43,25.63Z"/><path class="cls-1" d="M102.6,16.52a10.22,10.22,0,0,1,4,4.66v-6h10V48a19,19,0,0,1-1.77,8.29,13.64,13.64,0,0,1-5.43,5.87,17.49,17.49,0,0,1-9.08,2.18q-7.44,0-11.89-3.51a14.29,14.29,0,0,1-5.34-9.53h10a5,5,0,0,0,2.15,3.13,7.89,7.89,0,0,0,4.4,1.12,7.05,7.05,0,0,0,5-1.8q1.92-1.8,1.92-5.75V42.18a10.25,10.25,0,0,1-4,4.67,11.92,11.92,0,0,1-6.49,1.71,13.35,13.35,0,0,1-7.29-2,14,14,0,0,1-5.07-5.87,20.36,20.36,0,0,1-1.86-9,20.31,20.31,0,0,1,1.86-9,14,14,0,0,1,5.07-5.84,13.43,13.43,0,0,1,7.29-2A11.92,11.92,0,0,1,102.6,16.52Zm-8.47,9.26a8.33,8.33,0,0,0-2,5.9,8.3,8.3,0,0,0,2,5.9,7.4,7.4,0,0,0,10.45-.06,8.24,8.24,0,0,0,2-5.84,8.23,8.23,0,0,0-2-5.87,6.9,6.9,0,0,0-5.23-2.15A6.82,6.82,0,0,0,94.13,25.78Z"/><path class="cls-1" d="M124.31,2.15a7.1,7.1,0,0,1,8.73,0A5,5,0,0,1,134.7,6,4.9,4.9,0,0,1,133,9.71a7.1,7.1,0,0,1-8.73,0A4.89,4.89,0,0,1,122.66,6,4.94,4.94,0,0,1,124.31,2.15Zm9.38,13.07V48.14H123.6V15.22Z"/><path class="cls-1" d="M159.3,39.47v8.67h-4.55q-5.77,0-9-2.86t-3.22-9.47V23.72h-4.42v-8.5h4.42V7.14h10.09v8.08h6.61v8.5h-6.61V36a3.69,3.69,0,0,0,.8,2.71,3.8,3.8,0,0,0,2.68.77Z"/><path class="cls-1" d="M189.12,16.84a15,15,0,0,1,6.08,5.87,17.7,17.7,0,0,1,2.21,9,17.7,17.7,0,0,1-2.21,9,14.93,14.93,0,0,1-6.08,5.87,19.89,19.89,0,0,1-17.55,0,14.89,14.89,0,0,1-6.11-5.87,17.7,17.7,0,0,1-2.21-9,17.7,17.7,0,0,1,2.21-9,15,15,0,0,1,6.11-5.87,20,20,0,0,1,17.55,0Zm-13.63,8.79a8.49,8.49,0,0,0-2,6.05c0,2.64.65,4.64,2,6a6.47,6.47,0,0,0,4.87,2.07,6.37,6.37,0,0,0,4.84-2.07c1.3-1.38,1.94-3.38,1.94-6a8.58,8.58,0,0,0-1.94-6.05,6.36,6.36,0,0,0-4.84-2.09A6.45,6.45,0,0,0,175.49,25.63Z"/><path class="cls-1" d="M223.25,55.81H213.1V0h10.15Z"/><path class="cls-1" d="M257.94,18.82c0-3.22-1.39-4.84-4.19-4.84a3.84,3.84,0,0,0-3.45,1.65,10.17,10.17,0,0,0-1.21,5.14h-9.85q.36-7.62,4.6-11.45a15.44,15.44,0,0,1,10.74-3.83q6.78,0,10.24,3.42a12,12,0,0,1,3.45,8.91q0,6.08-4.66,11.89a43.6,43.6,0,0,1-11.15,9.82h16.46v8.14H239.18V40.12Q257.95,26.73,257.94,18.82Z"/><path class="cls-1" d="M273.05,26.84q0-9.73,3.95-15.42t12.63-5.7q8.61,0,12.59,5.7t4,15.42q0,9.79-4,15.52t-12.59,5.72q-8.69,0-12.63-5.72T273.05,26.84Zm23.12,0a22,22,0,0,0-1.32-8.58q-1.34-3-5.22-3t-5.31,3A21.34,21.34,0,0,0,283,26.84a21.79,21.79,0,0,0,1.36,8.65c.9,2,2.67,3,5.31,3s4.33-1,5.22-3A22.44,22.44,0,0,0,296.17,26.84Z"/></g></g></svg>