<svg xmlns="http://www.w3.org/2000/svg" width="19.759" height="19.759" viewBox="0 0 19.759 19.759">
  <path id="facebook-square-brands" d="M17.642,32H2.117A2.117,2.117,0,0,0,0,34.117V49.642a2.117,2.117,0,0,0,2.117,2.117H8.171V45.042H5.392V41.88H8.171V39.47c0-2.741,1.632-4.255,4.131-4.255a16.833,16.833,0,0,1,2.449.213v2.69H13.371a1.581,1.581,0,0,0-1.783,1.708V41.88h3.034l-.485,3.162H11.589v6.718h6.053a2.117,2.117,0,0,0,2.117-2.117V34.117A2.117,2.117,0,0,0,17.642,32Z" transform="translate(0 -32)"/>
</svg>
