<svg xmlns="http://www.w3.org/2000/svg" width="19.759" height="19.759" viewBox="0 0 19.759 19.759">
  <path id="instagram-brands" d="M9.807,36.639A5.066,5.066,0,1,0,14.872,41.7,5.057,5.057,0,0,0,9.807,36.639Zm0,8.36A3.294,3.294,0,1,1,13.1,41.7,3.3,3.3,0,0,1,9.807,45Zm6.453-8.567a1.181,1.181,0,1,1-1.181-1.182A1.179,1.179,0,0,1,16.26,36.431Zm3.355,1.2a5.848,5.848,0,0,0-1.6-4.14,5.884,5.884,0,0,0-4.139-1.6c-1.631-.093-6.52-.093-8.151,0A5.876,5.876,0,0,0,1.59,33.486a5.867,5.867,0,0,0-1.6,4.14c-.093,1.631-.093,6.521,0,8.152a5.848,5.848,0,0,0,1.6,4.14,5.892,5.892,0,0,0,4.139,1.6c1.631.093,6.52.093,8.151,0a5.846,5.846,0,0,0,4.139-1.6,5.887,5.887,0,0,0,1.6-4.14C19.707,44.147,19.707,39.262,19.615,37.631Zm-2.107,9.9a3.334,3.334,0,0,1-1.878,1.878c-1.3.516-4.386.4-5.823.4s-4.527.115-5.823-.4a3.334,3.334,0,0,1-1.878-1.878c-.516-1.3-.4-4.387-.4-5.824s-.115-4.528.4-5.824A3.334,3.334,0,0,1,3.984,34c1.3-.516,4.386-.4,5.823-.4s4.527-.115,5.823.4a3.334,3.334,0,0,1,1.878,1.878c.516,1.3.4,4.387.4,5.824S18.023,46.233,17.508,47.529Z" transform="translate(0.075 -31.825)"/>
</svg>
