<svg xmlns="http://www.w3.org/2000/svg" viewBox="0 0 175.44 175.44"><defs><style>.cls-1{fill:#ff0;}.cls-2{fill:none;}.cls-3{font-size:12px;font-family:Poppins-Bold, Poppins;font-weight:700;}</style></defs><title>heloNon Technical</title><g id="Layer_2" data-name="Layer 2"><g id="Logo"><rect class="cls-1" width="175.44" height="175.44"/></g><g id="Layer_4" data-name="Layer 4"><rect class="cls-2" x="44.05" y="44.05" width="87.34" height="87.34"/><path d="M116.63,77.72h-.58A21.6,21.6,0,0,0,96.9,89.37,18.11,18.11,0,0,0,77.68,92a71.68,71.68,0,0,0-.8-8.25,47.53,47.53,0,0,1-.63-6h8.42a5,5,0,0,0,3.54-1.47l6.66-6.66a5,5,0,0,0,.1-6.92,5,5,0,0,0-1.38-6.93l-4-2.69a11.82,11.82,0,0,0-6.59-2,18.2,18.2,0,0,0-13,5.38A70.92,70.92,0,0,0,55.05,78.16C50.8,87.84,48.64,95,48.64,99.38a23.25,23.25,0,0,1-.65,6.1,7.39,7.39,0,0,0,3.53,8.42A79.67,79.67,0,0,0,91,124.38h2.41a79.39,79.39,0,0,0,25.16-4.08l1.17-.39a11.66,11.66,0,0,0,8-11.07V89.4A11.62,11.62,0,0,0,116.63,77.72Zm7.75,31.12a8.32,8.32,0,0,1-5.7,7.91l-1.16.39a76.28,76.28,0,0,1-24.11,3.91H91a76.38,76.38,0,0,1-37.83-10,4.07,4.07,0,0,1-2-4.62,26.24,26.24,0,0,0,.78-7c0-3.88,2.11-10.75,6.12-19.88A67.83,67.83,0,0,1,72.34,58.78,15,15,0,0,1,83,54.39a8.51,8.51,0,0,1,4.74,1.43l4,2.7a1.64,1.64,0,0,1,.74,1.22A1.66,1.66,0,0,1,92,61.08l-5.32,5.33a1.87,1.87,0,0,1-3.17-1A1.84,1.84,0,0,1,84,63.76l1.53-1.53a1.67,1.67,0,0,0-2.35-2.36l-1.53,1.54A5.2,5.2,0,0,0,83,69.74a5.19,5.19,0,0,0,6-1l3.65-3.64a1.65,1.65,0,0,1-.16,2.11L85.85,73.9a1.68,1.68,0,0,1-1.18.49H76.89a2.08,2.08,0,0,1,.34-.48,1.67,1.67,0,1,0-2.36-2.36c-2.72,2.73-2.06,7.33-1.29,12.67a61.17,61.17,0,0,1,.81,8.51c0,6.86-5.2,8.32-5.42,8.38a1.67,1.67,0,0,0,.41,3.28,1.44,1.44,0,0,0,.41,0A10.84,10.84,0,0,0,76.7,98s.06,0,.08-.07A15,15,0,0,1,99.94,95.4,1.67,1.67,0,1,0,102.29,93a19.21,19.21,0,0,0-2.49-2,18.27,18.27,0,0,1,16.25-10h.49a8.25,8.25,0,0,1,7.84,8.34v19.44Z"/><text class="cls-3" transform="translate(40.68 162.11)">Non -Technical</text></g></g></svg>