<svg xmlns="http://www.w3.org/2000/svg" viewBox="0 0 175.44 175.44"><defs><style>.cls-1{fill:#ff0;}.cls-2{fill:none;}.cls-3{font-size:12px;font-family:Poppins-Bold, Poppins;font-weight:700;}</style></defs><title>heloTechnical</title><g id="Layer_2" data-name="Layer 2"><g id="Logo"><rect class="cls-1" width="175.44" height="175.44"/></g><g id="Layer_4" data-name="Layer 4"><rect class="cls-2" x="44.05" y="44.05" width="87.34" height="87.34"/><path d="M87.72,84.44a3.8,3.8,0,1,0,3.79,3.79A3.8,3.8,0,0,0,87.72,84.44Zm0,5.34a1.55,1.55,0,1,1,1.54-1.55A1.55,1.55,0,0,1,87.72,89.78Z"/><path d="M127.45,116a10.84,10.84,0,0,0-3.61-7.84L99.16,85.87,121,64.05a3.2,3.2,0,0,0,.43-.17l4.72-2.5a2.25,2.25,0,0,0,1.2-1.69,2.28,2.28,0,0,0-.64-2l-5.33-5.32a2.3,2.3,0,0,0-3.66.55l-2.49,4.73a2.26,2.26,0,0,0-.17.43l-10.3,10.3a1.22,1.22,0,1,0,1.73,1.73l9.45-9.45,2.48,2.47L94.23,87.34l-2.48-2.48L102.3,74.31a1.23,1.23,0,1,0-1.73-1.74l-7.66,7.66-8.33-7.51A18.82,18.82,0,0,0,60.05,49a1.21,1.21,0,0,0-.76.89A1.23,1.23,0,0,0,59.62,51l9.62,9.62a1.49,1.49,0,0,1,.45,1.07,1.47,1.47,0,0,1-.45,1.06L63,69a1.47,1.47,0,0,1-1.06.45A1.51,1.51,0,0,1,60.86,69l-9.62-9.62A1.22,1.22,0,0,0,50.12,59a1.2,1.2,0,0,0-.89.76A18.82,18.82,0,0,0,72.6,84.44l6.44,7a6.48,6.48,0,0,1-1.21,1.66,6.63,6.63,0,0,1-7.09,1.49,1.24,1.24,0,0,0-1.31.28l-15,15a10.42,10.42,0,0,0,14.74,14.74l15-15a1.23,1.23,0,0,0,.27-1.31A6.64,6.64,0,0,1,93,99.76a1.24,1.24,0,0,0,1.32-.27l2.83-2.83a4.53,4.53,0,0,0,0-6.39L96,89.07l1.47-1.47L122.2,110a8.49,8.49,0,1,1-12,12L91.83,101.84A1.22,1.22,0,0,0,90,103.49l18.42,20.15a10.87,10.87,0,0,0,7.83,3.55h.25A10.95,10.95,0,0,0,127.45,116Zm-10-57.24,2.35-4.45,5,5-4.45,2.35ZM73.86,82.19a1.22,1.22,0,0,0-1.33-.32,16.37,16.37,0,0,1-21.6-19.35l8.2,8.2a4,4,0,0,0,5.6,0L71,64.47a4,4,0,0,0,0-5.6l-8.2-8.2A16.37,16.37,0,0,1,82,72.61,1.24,1.24,0,0,0,82.32,74l8.86,8L90,83.13l-1.21-1.21a4.51,4.51,0,0,0-6.38,0L79.6,84.75a1.23,1.23,0,0,0-.28,1.31,6.65,6.65,0,0,1,.45,2.59ZM95.43,94.92l-2.29,2.3a9.09,9.09,0,0,0-8.94,2.3h0a9.09,9.09,0,0,0-2.3,8.94L67.43,122.93a8,8,0,0,1-11.28-11.27L70.63,97.19A9.07,9.07,0,0,0,81.87,86l2.29-2.3a2.08,2.08,0,0,1,2.92,0l2.07,2.08,4.21,4.21L95.43,92A2,2,0,0,1,95.43,94.92Z"/><path d="M93.84,82.11a1.12,1.12,0,0,0-1.59,0L81.59,92.77a1.13,1.13,0,0,0,1.6,1.59L93.84,83.7A1.12,1.12,0,0,0,93.84,82.11Z"/><path d="M93.84,82.11a1.12,1.12,0,0,0-1.59,0L81.59,92.77a1.13,1.13,0,0,0,1.6,1.59L93.84,83.7A1.12,1.12,0,0,0,93.84,82.11Z"/><text class="cls-3" transform="translate(57.51 163.72)">Technical</text></g></g></svg>